#N canvas 204 52 687 364 10;
#X obj 147 203 netsend;
#X floatatom 147 226 5 0 0 0 - - -, f 5;
#X floatatom 184 228 5 0 0 0 - - -, f 5;
#X obj 32 20 ctlin, f 10;
#X obj 32 102 pack 0 0 0;
#X obj 147 128 loadbang;
#X obj 433 99 pack 0 0 0;
#X obj 433 17 notein, f 10;
#X floatatom 501 98 5 0 0 0 - - -, f 5;
#X floatatom 101 104 5 0 0 0 - - -, f 5;
#X obj 89 45 - 1;
#X obj 490 42 - 1;
#X msg 433 122 \$2 \$1 \$3;
#X obj 433 145 route 0;
#X msg 206 129 send cc 4 0 64;
#X obj 490 65 mod 16;
#X obj 89 74 mod 16;
#X msg 147 173 disconnect \, connect 192.168.99.15 3001;
#X obj 32 165 bng 15 250 50 0 empty empty empty 17 7 0 10 -262144 -1
-1;
#X obj 472 193 bng 15 250 50 0 empty empty empty 17 7 0 10 -262144
-1 -1;
#X msg 32 124 send :cc \$3 \$2 \$1;
#X msg 472 169 send :note-on \$3 \$2 \$1;
#X connect 0 0 1 0;
#X connect 0 1 2 0;
#X connect 3 0 4 0;
#X connect 3 1 4 1;
#X connect 3 2 10 0;
#X connect 4 0 20 0;
#X connect 5 0 17 0;
#X connect 6 0 12 0;
#X connect 7 0 6 0;
#X connect 7 1 6 1;
#X connect 7 2 11 0;
#X connect 10 0 9 0;
#X connect 10 0 16 0;
#X connect 11 0 8 0;
#X connect 11 0 15 0;
#X connect 12 0 13 0;
#X connect 13 1 21 0;
#X connect 14 0 0 0;
#X connect 15 0 6 2;
#X connect 16 0 4 2;
#X connect 17 0 0 0;
#X connect 20 0 0 0;
#X connect 20 0 18 0;
#X connect 21 0 0 0;
#X connect 21 0 19 0;
